<svg xmlns="http://www.w3.org/2000/svg" version="1.1" xmlns:xlink="http://www.w3.org/1999/xlink" xmlns:svgjs="http://svgjs.dev/svgjs" width="1000" height="623" viewBox="0 0 1000 623"><g transform="matrix(1,0,0,1,-0.6060606060606233,0.2522267206477409)"><svg viewBox="0 0 396 247" data-background-color="#ffffff" preserveAspectRatio="xMidYMid meet" height="623" width="1000" xmlns="http://www.w3.org/2000/svg" xmlns:xlink="http://www.w3.org/1999/xlink"><g id="tight-bounds" transform="matrix(1,0,0,1,0.2400000000000091,-0.09999999999999432)"><svg viewBox="0 0 395.52 247.2" height="247.2" width="395.52"><g><svg></svg></g><g><svg viewBox="0 0 395.52 247.2" height="247.2" width="395.52"><g transform="matrix(1,0,0,1,39.55199999999999,61.27823765599565)"><svg viewBox="0 0 316.416 124.64352468800868" height="124.64352468800868" width="316.416"><g><svg viewBox="0 0 316.416 124.64352468800868" height="124.64352468800868" width="316.416"><g><svg viewBox="0 0 316.416 124.64352468800868" height="124.64352468800868" width="316.416"><g><svg viewBox="0 0 316.416 124.64352468800868" height="124.64352468800868" width="316.416"><g id="textblocktransform"><svg viewBox="0 0 316.416 124.64352468800868" height="124.64352468800868" width="316.416" id="textblock"><g><svg viewBox="0 0 316.416 124.64352468800868" height="124.64352468800868" width="316.416"><g transform="matrix(1,0,0,1,0,0)"><svg width="316.416" viewBox="2.549999952316284 -36.29999923706055 92.13999938964844 36.29999923706055" height="124.64352468800868" data-palette-color="#edbbba"><path d="M4.45-17.7Q4.45-21.5 2.55-23.75L2.55-23.75 3.8-25Q6.1-23.25 6.35-19.75L6.35-19.75Q8.1-22.6 10.23-23.93 12.35-25.25 15.5-25.25L15.5-25.25Q19.35-25.25 21.4-23.28 23.45-21.3 23.4-17.4L23.4-17.4 23.25-0.05 21.25-0.05 21.3-16.85Q21.3-23.35 15.25-23.35L15.25-23.35Q12.5-23.35 10.53-22.03 8.55-20.7 6.55-17.9L6.55-17.9 6.55-0.05 4.45-0.05 4.45-17.7ZM31.3 0L31.3-25 33.55-25 33.55 0 31.3 0ZM32.4-28.75Q31.6-28.75 31.1-29.25 30.6-29.75 30.6-30.55L30.6-30.55Q30.6-31.35 31.1-31.85 31.6-32.35 32.4-32.35L32.4-32.35Q33.2-32.35 33.72-31.85 34.25-31.35 34.25-30.55L34.25-30.55Q34.25-29.75 33.72-29.25 33.2-28.75 32.4-28.75L32.4-28.75ZM51.85-13.65L61.7 0 59.35 0 51.15-11.4Q50.7-12.1 49.62-12.43 48.55-12.75 47.3-12.75L47.3-12.75 44.05-12.75 44.05 0 41.95 0 41.95-36.3 44.05-36.3 44.05-14.65 46.35-14.65Q48.05-14.65 49.07-14.75 50.1-14.85 50.95-15.3L50.95-15.3Q52.65-16.2 53.97-18.05 55.3-19.9 56.05-21.85 56.8-23.8 57.05-25L57.05-25 59.05-25Q58.9-23.2 57.7-20.73 56.5-18.25 54.87-16.25 53.25-14.25 51.85-13.65L51.85-13.65ZM76.74-13.65L86.59 0 84.24 0 76.04-11.4Q75.59-12.1 74.52-12.43 73.44-12.75 72.19-12.75L72.19-12.75 68.94-12.75 68.94 0 66.84 0 66.84-36.3 68.94-36.3 68.94-14.65 71.24-14.65Q72.94-14.65 73.97-14.75 74.99-14.85 75.84-15.3L75.84-15.3Q77.54-16.2 78.87-18.05 80.19-19.9 80.94-21.85 81.69-23.8 81.94-25L81.94-25 83.94-25Q83.79-23.2 82.59-20.73 81.39-18.25 79.77-16.25 78.14-14.25 76.74-13.65L76.74-13.65ZM91.74 0L91.74-25 93.99-25 93.99 0 91.74 0ZM92.84-28.75Q92.04-28.75 91.54-29.25 91.04-29.75 91.04-30.55L91.04-30.55Q91.04-31.35 91.54-31.85 92.04-32.35 92.84-32.35L92.84-32.35Q93.64-32.35 94.17-31.85 94.69-31.35 94.69-30.55L94.69-30.55Q94.69-29.75 94.17-29.25 93.64-28.75 92.84-28.75L92.84-28.75Z" opacity="1" transform="matrix(1,0,0,1,0,0)" fill="#edbbba" class="wordmark-text-0" data-fill-palette-color="primary" id="text-0"></path></svg></g></svg></g></svg></g></svg></g><g></g></svg></g></svg></g></svg></g><g><path xmlns="http://www.w3.org/2000/svg" d="M0 247.2v-247.2h395.52v247.2zM384.28 235.96v-224.72h-373.04v224.72z" fill="#edbbba" fill-rule="nonzero" stroke="none" stroke-width="1" stroke-linecap="butt" stroke-linejoin="miter" stroke-miterlimit="10" stroke-dasharray="" stroke-dashoffset="0" font-family="none" font-weight="none" font-size="none" text-anchor="none" style="mix-blend-mode: normal" data-fill-palette-color="tertiary"></path></g></svg></g><defs></defs></svg><rect width="395.52" height="247.2" fill="none" stroke="none" visibility="hidden"></rect></g></svg></g></svg>